<?xml version="1.0" encoding="UTF-8"?>
<!DOCTYPE svg PUBLIC "-//W3C//DTD SVG 1.1//EN" "http://www.w3.org/Graphics/SVG/1.1/DTD/svg11.dtd">
<svg xmlns="http://www.w3.org/2000/svg" version="1.1" width="36px" height="36px" style="shape-rendering:geometricPrecision; text-rendering:geometricPrecision; image-rendering:optimizeQuality; fill-rule:evenodd; clip-rule:evenodd" xmlns:xlink="http://www.w3.org/1999/xlink">
<g><path style="opacity:1" fill="#fefffe" d="M -0.5,-0.5 C 11.5,-0.5 23.5,-0.5 35.5,-0.5C 35.5,7.5 35.5,15.5 35.5,23.5C 34.2101,22.9423 33.3768,21.9423 33,20.5C 31.8333,21.6667 30.6667,22.8333 29.5,24C 30.9308,24.4652 32.0975,25.2986 33,26.5C 33.4169,25.244 34.2502,24.5774 35.5,24.5C 35.5,28.1667 35.5,31.8333 35.5,35.5C 24.5,35.5 13.5,35.5 2.5,35.5C 4.6281,32.8697 6.96144,30.3697 9.5,28C 9,27.5 8.5,27 8,26.5C 4.8883,29.1009 2.3883,32.1009 0.5,35.5C 0.166667,35.5 -0.166667,35.5 -0.5,35.5C -0.5,23.5 -0.5,11.5 -0.5,-0.5 Z"/></g>
<g><path style="opacity:1" fill="#372865" d="M 7.5,0.5 C 8.47344,0.986722 9.47344,1.48672 10.5,2C 9.33333,2.5 8.5,3.33333 8,4.5C 6.66578,3.12206 6.49911,1.78873 7.5,0.5 Z"/></g>
<g><path style="opacity:1" fill="#372865" d="M 15.5,0.5 C 19.1844,2.20326 19.351,4.20326 16,6.5C 15.5348,5.06919 14.7014,3.90252 13.5,3C 14.3805,2.2917 15.0472,1.45837 15.5,0.5 Z"/></g>
<g><path style="opacity:1" fill="#372865" d="M 10.5,5.5 C 12.8519,6.54258 13.0185,7.87591 11,9.5C 10.1667,8.66667 9.33333,7.83333 8.5,7C 9.4158,6.72158 10.0825,6.22158 10.5,5.5 Z"/></g>
<g><path style="opacity:1" fill="#372865" d="M 22.5,6.5 C 24.8333,6.5 27.1667,6.5 29.5,6.5C 29.7929,16.5657 25.1262,23.2324 15.5,26.5C 13.1667,24.8333 11.1667,22.8333 9.5,20.5C 11.8221,13.8486 16.1554,9.18189 22.5,6.5 Z"/></g>
<g><path style="opacity:1" fill="#fefffe" d="M 24.5,8.5 C 25.5,8.5 26.5,8.5 27.5,8.5C 26.5608,15.4472 22.8941,20.4472 16.5,23.5C 12.7845,22.0129 11.9512,19.6796 14,16.5C 16.8552,12.7893 20.3552,10.1226 24.5,8.5 Z"/></g>
<g><path style="opacity:1" fill="#40306b" d="M 21.5,11.5 C 23.2517,11.4176 24.2517,12.2509 24.5,14C 22.8333,17.3333 21.1667,17.3333 19.5,14C 20.0556,12.9889 20.7222,12.1556 21.5,11.5 Z"/></g>
<g><path style="opacity:1" fill="#372865" d="M 7.5,13.5 C 8.37644,13.3691 9.04311,13.7025 9.5,14.5C 8.33492,15.5836 7.00158,16.4169 5.5,17C 6.30806,17.3076 6.97473,17.8076 7.5,18.5C 6.00949,19.2436 4.50949,19.9103 3,20.5C 3.00434,17.307 4.50434,14.9737 7.5,13.5 Z"/></g>
<g><path style="opacity:1" fill="#372865" d="M 32.5,14.5 C 33.5983,15.6009 33.765,16.9343 33,18.5C 31.2317,17.3181 31.0651,15.9848 32.5,14.5 Z"/></g>
<g><path style="opacity:1" fill="#372865" d="M 17.5,16.5 C 19.337,16.6395 19.6704,17.3061 18.5,18.5C 17.7025,18.0431 17.3691,17.3764 17.5,16.5 Z"/></g>
<g><path style="opacity:1" fill="#372865" d="M 35.5,23.5 C 35.5,23.8333 35.5,24.1667 35.5,24.5C 34.2502,24.5774 33.4169,25.244 33,26.5C 32.0975,25.2986 30.9308,24.4652 29.5,24C 30.6667,22.8333 31.8333,21.6667 33,20.5C 33.3768,21.9423 34.2101,22.9423 35.5,23.5 Z"/></g>
<g><path style="opacity:1" fill="#372865" d="M 6.5,23.5 C 7.23891,23.369 7.90558,23.5357 8.5,24C 6.33333,26.1667 4.16667,28.3333 2,30.5C 1.33333,29.8333 1.33333,29.1667 2,28.5C 3.70733,26.9625 5.20733,25.2959 6.5,23.5 Z"/></g>
<g><path style="opacity:1" fill="#372865" d="M 2.5,35.5 C 1.83333,35.5 1.16667,35.5 0.5,35.5C 2.3883,32.1009 4.8883,29.1009 8,26.5C 8.5,27 9,27.5 9.5,28C 6.96144,30.3697 4.6281,32.8697 2.5,35.5 Z"/></g>
<g><path style="opacity:1" fill="#372865" d="M 20.5,26.5 C 21.3764,26.3691 22.0431,26.7025 22.5,27.5C 21.5569,30.1092 19.8903,32.1092 17.5,33.5C 16.1667,31.8333 16.1667,30.1667 17.5,28.5C 19.2527,30.641 20.2527,29.9743 20.5,26.5 Z"/></g>
<g><path style="opacity:1" fill="#372865" d="M 11.5,27.5 C 12.525,27.8966 12.6917,28.5632 12,29.5C 10.8867,31.3293 9.38673,32.1626 7.5,32C 9.04138,30.6288 10.3747,29.1288 11.5,27.5 Z"/></g>
</svg>
